<svg width="28" height="40" viewBox="0 0 28 40" fill="none" xmlns="http://www.w3.org/2000/svg">
<path id="Icon" d="M14.1667 2.5H8.33333C6.78624 2.5 5.30251 3.11458 4.20854 4.20854C3.11458 5.30251 2.5 6.78624 2.5 8.33333C2.5 9.88043 3.11458 11.3642 4.20854 12.4581C5.30251 13.5521 6.78624 14.1667 8.33333 14.1667M14.1667 2.5V14.1667M14.1667 2.5H20C20.766 2.5 21.5246 2.65088 22.2323 2.94404C22.9401 3.23719 23.5831 3.66687 24.1248 4.20854C24.6665 4.75022 25.0961 5.39328 25.3893 6.10101C25.6824 6.80875 25.8333 7.56729 25.8333 8.33333C25.8333 9.09938 25.6824 9.85792 25.3893 10.5657C25.0961 11.2734 24.6665 11.9164 24.1248 12.4581C23.5831 12.9998 22.9401 13.4295 22.2323 13.7226C21.5246 14.0158 20.766 14.1667 20 14.1667M14.1667 14.1667H8.33333M14.1667 14.1667H20M14.1667 14.1667V25.8333M8.33333 14.1667C6.78624 14.1667 5.30251 14.7812 4.20854 15.8752C3.11458 16.9692 2.5 18.4529 2.5 20C2.5 21.5471 3.11458 23.0308 4.20854 24.1248C5.30251 25.2188 6.78624 25.8333 8.33333 25.8333M20 14.1667C19.234 14.1667 18.4754 14.3175 17.7677 14.6107C17.0599 14.9039 16.4169 15.3335 15.8752 15.8752C15.3335 16.4169 14.9039 17.0599 14.6107 17.7677C14.3175 18.4754 14.1667 19.234 14.1667 20C14.1667 20.766 14.3175 21.5246 14.6107 22.2323C14.9039 22.9401 15.3335 23.5831 15.8752 24.1248C16.4169 24.6665 17.0599 25.0961 17.7677 25.3893C18.4754 25.6824 19.234 25.8333 20 25.8333C20.766 25.8333 21.5246 25.6824 22.2323 25.3893C22.9401 25.0961 23.5831 24.6665 24.1248 24.1248C24.6665 23.5831 25.0961 22.9401 25.3893 22.2323C25.6824 21.5246 25.8333 20.766 25.8333 20C25.8333 19.234 25.6824 18.4754 25.3893 17.7677C25.0961 17.0599 24.6665 16.4169 24.1248 15.8752C23.5831 15.3335 22.9401 14.9039 22.2323 14.6107C21.5246 14.3175 20.766 14.1667 20 14.1667ZM8.33333 25.8333C6.78624 25.8333 5.30251 26.4479 4.20854 27.5419C3.11458 28.6358 2.5 30.1196 2.5 31.6667C2.5 33.2138 3.11458 34.6975 4.20854 35.7915C5.30251 36.8854 6.78624 37.5 8.33333 37.5C9.88043 37.5 11.3642 36.8854 12.4581 35.7915C13.5521 34.6975 14.1667 33.2138 14.1667 31.6667V25.8333M8.33333 25.8333H14.1667" stroke="white" stroke-width="3.5" stroke-linecap="round" stroke-linejoin="round"/>
</svg>
