<svg width="25" height="25" viewBox="0 0 25 25" fill="none" xmlns="http://www.w3.org/2000/svg">
<g id="LinkedIn" clip-path="url(#clip0_3_300)">
<path id="Icon" d="M19.48 0.5H5.48004C2.71904 0.5 0.480042 2.739 0.480042 5.5V19.5C0.480042 22.261 2.71904 24.5 5.48004 24.5H19.48C22.242 24.5 24.48 22.261 24.48 19.5V5.5C24.48 2.739 22.242 0.5 19.48 0.5ZM8.48004 19.5H5.48004V8.5H8.48004V19.5ZM6.98004 7.232C6.01404 7.232 5.23004 6.442 5.23004 5.468C5.23004 4.494 6.01404 3.704 6.98004 3.704C7.94604 3.704 8.73004 4.494 8.73004 5.468C8.73004 6.442 7.94704 7.232 6.98004 7.232ZM20.48 19.5H17.48V13.896C17.48 10.528 13.48 10.783 13.48 13.896V19.5H10.48V8.5H13.48V10.265C14.876 7.679 20.48 7.488 20.48 12.741V19.5Z" fill="white"/>
</g>
<defs>
<clipPath id="clip0_3_300">
<rect width="24" height="24" fill="white" transform="translate(0.480042 0.5)"/>
</clipPath>
</defs>
</svg>
