<svg width="25" height="25" viewBox="0 0 25 25" fill="none" xmlns="http://www.w3.org/2000/svg">
<g id="Logo Instagram" clip-path="url(#clip0_3_296)">
<path id="Icon" d="M12.48 2.663C15.684 2.663 16.064 2.675 17.33 2.733C20.582 2.881 22.101 4.424 22.249 7.652C22.307 8.917 22.318 9.297 22.318 12.501C22.318 15.706 22.306 16.085 22.249 17.35C22.1 20.575 20.585 22.121 17.33 22.269C16.064 22.327 15.686 22.339 12.48 22.339C9.27604 22.339 8.89604 22.327 7.63104 22.269C4.37104 22.12 2.86004 20.57 2.71204 17.349C2.65404 16.084 2.64204 15.705 2.64204 12.5C2.64204 9.296 2.65504 8.917 2.71204 7.651C2.86104 4.424 4.37604 2.88 7.63104 2.732C8.89704 2.675 9.27604 2.663 12.48 2.663ZM12.48 0.5C9.22104 0.5 8.81304 0.514 7.53304 0.572C3.17504 0.772 0.753042 3.19 0.553042 7.552C0.494042 8.833 0.480042 9.241 0.480042 12.5C0.480042 15.759 0.494042 16.168 0.552042 17.448C0.752042 21.806 3.17004 24.228 7.53204 24.428C8.81304 24.486 9.22104 24.5 12.48 24.5C15.739 24.5 16.148 24.486 17.428 24.428C21.782 24.228 24.21 21.81 24.407 17.448C24.466 16.168 24.48 15.759 24.48 12.5C24.48 9.241 24.466 8.833 24.408 7.553C24.212 3.199 21.791 0.773 17.429 0.573C16.148 0.514 15.739 0.5 12.48 0.5ZM12.48 6.338C9.07704 6.338 6.31804 9.097 6.31804 12.5C6.31804 15.903 9.07704 18.663 12.48 18.663C15.883 18.663 18.642 15.904 18.642 12.5C18.642 9.097 15.883 6.338 12.48 6.338ZM12.48 16.5C10.271 16.5 8.48004 14.71 8.48004 12.5C8.48004 10.291 10.271 8.5 12.48 8.5C14.689 8.5 16.48 10.291 16.48 12.5C16.48 14.71 14.689 16.5 12.48 16.5ZM18.886 4.655C18.09 4.655 17.445 5.3 17.445 6.095C17.445 6.89 18.09 7.535 18.886 7.535C19.681 7.535 20.325 6.89 20.325 6.095C20.325 5.3 19.681 4.655 18.886 4.655Z" fill="white"/>
</g>
<defs>
<clipPath id="clip0_3_296">
<rect width="24" height="24" fill="white" transform="translate(0.480042 0.5)"/>
</clipPath>
</defs>
</svg>
